# xmcd
#
# Track frame offsets:
#	150
#	13982
#	29952
#	42817
#	56700
#	70875
#	87020
#	101767
#	116760
#	129330
#	142942
#	155992
#	169025
#
# Disc length: 2470 seconds
#
# Revision: 0
# Processed by: cddbd v1.4PL0 Copyright (c) Steve Scherf et al.
# Submitted via: EasyCDDAExtractor 5.0.5.1
#
DISCID=b909a40d
DTITLE=Syke - Villit bootsit
DYEAR=2003
DGENRE=Dance
TTITLE0=Villit bootsit
TTITLE1=Ihanuuteni
TTITLE2=Tosimiehen elkeet
TTITLE3=Yötaivas
TTITLE4=Vielä mummunakin sen muistat
TTITLE5=Hyvä mun kanssas on
TTITLE6=Sanat lipuvat pois
TTITLE7=Tulimeri
TTITLE8=Pieni murhe
TTITLE9=Kahden
TTITLE10=Kun kuuskyt' luku vie
TTITLE11=Oot mun ihollain
TTITLE12=Mä muistan huivis vaan
EXTD=
EXTT0=
EXTT1=
EXTT2=
EXTT3=
EXTT4=
EXTT5=
EXTT6=
EXTT7=
EXTT8=
EXTT9=
EXTT10=
EXTT11=
EXTT12=
PLAYORDER=
